<?xml version="1.0" encoding="utf-8"?>
<!-- Generator: Adobe Illustrator 16.0.4, SVG Export Plug-In . SVG Version: 6.00 Build 0)  -->
<!DOCTYPE svg PUBLIC "-//W3C//DTD SVG 1.1//EN" "http://www.w3.org/Graphics/SVG/1.1/DTD/svg11.dtd">
<svg version="1.1" xmlns="http://www.w3.org/2000/svg" xmlns:xlink="http://www.w3.org/1999/xlink" x="0px" y="0px"
	 width="233.41px" height="234.5px" viewBox="0 0 233.41 234.5" enable-background="new 0 0 233.41 234.5" xml:space="preserve">
<g id="Layer_2">
	<g>
		<circle fill="#FFFFFF" stroke="#636C72" stroke-miterlimit="10" cx="70.797" cy="69.104" r="47.767"/>
		<circle fill="#5BC0DE" stroke="#636C72" stroke-miterlimit="10" cx="70.797" cy="69.104" r="33.116"/>
		<circle fill="#FFFFFF" stroke="#636C72" stroke-miterlimit="10" cx="70.797" cy="69.104" r="18.792"/>
		<circle fill="#D9534F" stroke="#636C72" stroke-miterlimit="10" cx="70.797" cy="69.104" r="7.37"/>
	</g>
	<g>
		<circle fill="#FFFFFF" stroke="#636C72" stroke-miterlimit="10" cx="174.258" cy="69.104" r="47.767"/>
		<circle fill="#5BC0DE" stroke="#636C72" stroke-miterlimit="10" cx="174.258" cy="69.104" r="33.116"/>
		<circle fill="#FFFFFF" stroke="#636C72" stroke-miterlimit="10" cx="174.258" cy="69.104" r="18.792"/>
		<circle fill="#D9534F" stroke="#636C72" stroke-miterlimit="10" cx="174.258" cy="69.104" r="7.37"/>
	</g>
	<g>
		<circle fill="#FFFFFF" stroke="#636C72" stroke-miterlimit="10" cx="174.258" cy="182.535" r="47.767"/>
		<circle fill="#5BC0DE" stroke="#636C72" stroke-miterlimit="10" cx="174.258" cy="182.535" r="33.116"/>
		<circle fill="#FFFFFF" stroke="#636C72" stroke-miterlimit="10" cx="174.258" cy="182.534" r="18.792"/>
		<circle fill="#D9534F" stroke="#636C72" stroke-miterlimit="10" cx="174.258" cy="182.534" r="7.37"/>
	</g>
	<g>
		<circle fill="#FFFFFF" stroke="#636C72" stroke-miterlimit="10" cx="70.797" cy="182.535" r="47.767"/>
		<circle fill="#5BC0DE" stroke="#636C72" stroke-miterlimit="10" cx="70.797" cy="182.535" r="33.116"/>
		<circle fill="#FFFFFF" stroke="#636C72" stroke-miterlimit="10" cx="70.797" cy="182.534" r="18.792"/>
		<circle fill="#D9534F" stroke="#636C72" stroke-miterlimit="10" cx="70.797" cy="182.534" r="7.37"/>
	</g>
	<g>
		<path fill="#D2D2D2" d="M31.421,12.5V3.27h1.17v8.19h5.148v1.04H31.421z"/>
		<path fill="#D2D2D2" d="M41.704,12.63c-0.512,0-0.978-0.095-1.398-0.286c-0.42-0.19-0.78-0.445-1.079-0.767
			c-0.299-0.321-0.531-0.693-0.696-1.118c-0.165-0.424-0.247-0.871-0.247-1.339c0-0.477,0.085-0.927,0.254-1.353
			c0.169-0.424,0.403-0.797,0.702-1.117c0.299-0.32,0.659-0.576,1.079-0.768c0.42-0.19,0.882-0.285,1.385-0.285
			c0.502,0,0.966,0.095,1.391,0.285C43.52,6.074,43.881,6.33,44.18,6.65c0.299,0.32,0.533,0.693,0.702,1.117
			c0.169,0.426,0.253,0.876,0.253,1.353c0,0.468-0.083,0.915-0.247,1.339c-0.165,0.425-0.398,0.797-0.702,1.118
			c-0.304,0.321-0.666,0.576-1.085,0.767C42.681,12.535,42.215,12.63,41.704,12.63z M39.455,9.133c0,0.355,0.058,0.686,0.175,0.988
			s0.277,0.568,0.481,0.793c0.204,0.226,0.442,0.402,0.715,0.533c0.273,0.13,0.566,0.195,0.878,0.195s0.604-0.065,0.877-0.195
			c0.273-0.131,0.513-0.311,0.721-0.539c0.208-0.23,0.371-0.499,0.488-0.807c0.117-0.308,0.175-0.639,0.175-0.994
			c0-0.348-0.059-0.674-0.175-0.982c-0.117-0.307-0.28-0.576-0.488-0.806s-0.448-0.409-0.721-0.54
			c-0.273-0.129-0.565-0.194-0.877-0.194S41.1,6.652,40.826,6.787c-0.273,0.134-0.511,0.316-0.715,0.545
			c-0.204,0.23-0.364,0.499-0.481,0.807S39.455,8.777,39.455,9.133z"/>
		<path fill="#D2D2D2" d="M54.795,5.714H55.9L53.014,12.5h-0.949L50.7,9.186L49.348,12.5h-0.949l-2.886-6.786h1.092l2.34,5.655
			l1.144-2.821l-1.17-2.821h0.949L50.7,7.898l0.832-2.172h0.949l-1.157,2.821l1.144,2.821L54.795,5.714z"/>
		<path fill="#D2D2D2" d="M59.891,3.27l3.055,7.762l3.042-7.762h1.235l-3.77,9.23h-1.014l-3.783-9.23H59.891z"/>
		<path fill="#D2D2D2" d="M69.342,12.63c-0.321,0-0.62-0.054-0.897-0.163c-0.277-0.107-0.518-0.257-0.722-0.447
			c-0.204-0.191-0.364-0.414-0.481-0.67c-0.117-0.256-0.175-0.535-0.175-0.838c0-0.312,0.069-0.597,0.208-0.852
			c0.138-0.256,0.335-0.475,0.591-0.657c0.255-0.183,0.559-0.325,0.91-0.429s0.734-0.156,1.15-0.156c0.329,0,0.663,0.03,1.001,0.091
			c0.338,0.062,0.637,0.144,0.897,0.247V8.21c0-0.555-0.156-0.99-0.468-1.307c-0.312-0.315-0.754-0.474-1.326-0.474
			c-0.685,0-1.404,0.264-2.158,0.793L67.496,6.48c0.875-0.589,1.755-0.883,2.639-0.883c0.893,0,1.588,0.238,2.086,0.715
			s0.748,1.148,0.748,2.015v2.769c0,0.27,0.121,0.408,0.364,0.416V12.5c-0.121,0.018-0.221,0.03-0.299,0.039
			c-0.078,0.008-0.161,0.013-0.247,0.013c-0.225,0-0.405-0.067-0.54-0.201s-0.214-0.297-0.24-0.487l-0.026-0.481
			c-0.304,0.407-0.687,0.718-1.151,0.93C70.367,12.523,69.871,12.63,69.342,12.63z M69.641,11.771c0.407,0,0.787-0.075,1.138-0.227
			c0.351-0.152,0.618-0.354,0.799-0.605c0.165-0.164,0.247-0.333,0.247-0.506V9.432c-0.555-0.217-1.131-0.324-1.729-0.324
			c-0.572,0-1.038,0.121-1.397,0.363c-0.36,0.243-0.54,0.559-0.54,0.949c0,0.191,0.037,0.369,0.11,0.533s0.178,0.308,0.312,0.429
			c0.134,0.122,0.292,0.217,0.475,0.286S69.433,11.771,69.641,11.771z"/>
		<path fill="#D2D2D2" d="M78.39,6.715c-0.572,0.018-1.077,0.165-1.515,0.442c-0.438,0.277-0.748,0.663-0.93,1.157V12.5h-1.144
			V5.714h1.066v1.573c0.234-0.469,0.542-0.848,0.923-1.138s0.789-0.452,1.222-0.487c0.087,0,0.161,0,0.221,0
			s0.113,0.004,0.156,0.013V6.715z"/>
		<path fill="#D2D2D2" d="M79.521,4.439V3.01h1.144v1.43H79.521z M79.521,12.5V5.714h1.144V12.5H79.521z"/>
		<path fill="#D2D2D2" d="M84.253,12.63c-0.321,0-0.62-0.054-0.897-0.163c-0.277-0.107-0.518-0.257-0.722-0.447
			c-0.204-0.191-0.364-0.414-0.481-0.67c-0.117-0.256-0.175-0.535-0.175-0.838c0-0.312,0.069-0.597,0.208-0.852
			c0.138-0.256,0.335-0.475,0.591-0.657c0.255-0.183,0.559-0.325,0.91-0.429s0.734-0.156,1.15-0.156c0.329,0,0.663,0.03,1.001,0.091
			c0.338,0.062,0.637,0.144,0.897,0.247V8.21c0-0.555-0.156-0.99-0.468-1.307c-0.312-0.315-0.754-0.474-1.326-0.474
			c-0.685,0-1.404,0.264-2.158,0.793L82.407,6.48c0.875-0.589,1.755-0.883,2.639-0.883c0.893,0,1.588,0.238,2.086,0.715
			s0.748,1.148,0.748,2.015v2.769c0,0.27,0.121,0.408,0.364,0.416V12.5c-0.121,0.018-0.221,0.03-0.299,0.039
			c-0.078,0.008-0.161,0.013-0.247,0.013c-0.225,0-0.405-0.067-0.54-0.201s-0.214-0.297-0.24-0.487l-0.026-0.481
			c-0.304,0.407-0.687,0.718-1.151,0.93C85.278,12.523,84.781,12.63,84.253,12.63z M84.552,11.771c0.407,0,0.787-0.075,1.138-0.227
			c0.351-0.152,0.618-0.354,0.799-0.605c0.165-0.164,0.247-0.333,0.247-0.506V9.432c-0.555-0.217-1.131-0.324-1.729-0.324
			c-0.572,0-1.038,0.121-1.397,0.363c-0.36,0.243-0.54,0.559-0.54,0.949c0,0.191,0.037,0.369,0.11,0.533s0.178,0.308,0.312,0.429
			c0.134,0.122,0.292,0.217,0.475,0.286S84.344,11.771,84.552,11.771z"/>
		<path fill="#D2D2D2" d="M95.602,12.5h-1.144V8.704c0-0.728-0.11-1.257-0.332-1.586c-0.221-0.329-0.557-0.494-1.007-0.494
			c-0.234,0-0.468,0.046-0.702,0.137s-0.455,0.214-0.663,0.37s-0.39,0.343-0.546,0.559c-0.156,0.217-0.273,0.455-0.351,0.715V12.5
			h-1.144V5.714h1.04V7.17c0.269-0.477,0.657-0.857,1.164-1.145c0.507-0.285,1.06-0.428,1.658-0.428c0.39,0,0.715,0.07,0.975,0.214
			c0.26,0.144,0.468,0.343,0.624,0.599c0.156,0.255,0.267,0.557,0.332,0.902c0.065,0.348,0.098,0.725,0.098,1.131V12.5z"/>
		<path fill="#D2D2D2" d="M96.927,9.094c0-0.477,0.083-0.928,0.247-1.352c0.165-0.425,0.399-0.795,0.702-1.111
			s0.665-0.568,1.085-0.754c0.42-0.187,0.891-0.279,1.411-0.279c0.676,0,1.259,0.148,1.749,0.447c0.489,0.3,0.86,0.701,1.111,1.203
			L102.114,7.6c-0.173-0.321-0.416-0.57-0.728-0.748c-0.312-0.178-0.659-0.267-1.04-0.267c-0.312,0-0.607,0.063-0.884,0.188
			c-0.277,0.126-0.516,0.301-0.715,0.526c-0.2,0.226-0.357,0.489-0.475,0.793s-0.175,0.638-0.175,1.001
			c0,0.355,0.061,0.689,0.182,1.002c0.122,0.312,0.284,0.582,0.488,0.812c0.204,0.229,0.442,0.408,0.715,0.539
			c0.273,0.13,0.565,0.195,0.877,0.195c0.199,0,0.396-0.029,0.592-0.085c0.195-0.056,0.373-0.132,0.533-0.228
			s0.301-0.206,0.422-0.332c0.122-0.125,0.208-0.262,0.26-0.409l1.118,0.338c-0.104,0.252-0.25,0.481-0.436,0.689
			c-0.187,0.208-0.405,0.386-0.657,0.532c-0.251,0.148-0.531,0.266-0.838,0.352s-0.63,0.13-0.969,0.13
			c-0.511,0-0.979-0.095-1.404-0.286c-0.425-0.19-0.789-0.445-1.092-0.767c-0.304-0.321-0.54-0.696-0.708-1.124
			C97.012,10.023,96.927,9.57,96.927,9.094z"/>
		<path fill="#D2D2D2" d="M107.522,12.63c-0.511,0-0.979-0.093-1.404-0.279c-0.425-0.187-0.789-0.44-1.092-0.761
			c-0.304-0.32-0.54-0.695-0.708-1.125c-0.169-0.428-0.254-0.881-0.254-1.357s0.085-0.928,0.254-1.353s0.407-0.798,0.715-1.118
			s0.674-0.574,1.099-0.76c0.424-0.187,0.893-0.279,1.404-0.279s0.977,0.095,1.397,0.285c0.42,0.191,0.778,0.444,1.073,0.761
			c0.294,0.316,0.522,0.685,0.682,1.104c0.161,0.421,0.241,0.856,0.241,1.307c0,0.096-0.002,0.182-0.006,0.26
			c-0.005,0.078-0.011,0.139-0.02,0.183h-5.629c0.026,0.338,0.104,0.646,0.234,0.923c0.13,0.277,0.299,0.516,0.507,0.715
			s0.444,0.355,0.708,0.469c0.264,0.112,0.544,0.168,0.838,0.168c0.208,0,0.412-0.027,0.611-0.084
			c0.199-0.057,0.385-0.132,0.559-0.228c0.173-0.095,0.327-0.212,0.462-0.351c0.134-0.139,0.236-0.295,0.305-0.469l0.988,0.273
			c-0.113,0.252-0.267,0.48-0.461,0.689c-0.195,0.207-0.421,0.388-0.676,0.539c-0.256,0.152-0.54,0.271-0.852,0.357
			S107.86,12.63,107.522,12.63z M109.849,8.652c-0.026-0.32-0.106-0.617-0.24-0.891c-0.135-0.273-0.304-0.505-0.507-0.695
			c-0.204-0.191-0.44-0.34-0.708-0.449c-0.269-0.107-0.555-0.162-0.858-0.162s-0.589,0.055-0.858,0.162
			c-0.269,0.109-0.505,0.26-0.708,0.455S105.6,7.5,105.475,7.768c-0.125,0.27-0.202,0.564-0.228,0.885H109.849z"/>
	</g>
	<g>
		<path fill="#D2D2D2" d="M140.783,3.27v9.23h-1.17V8.301h-5.083V12.5h-1.17V3.27h1.17v3.992h5.083V3.27H140.783z"/>
		<path fill="#D2D2D2" d="M142.811,4.439V3.01h1.144v1.43H142.811z M142.811,12.5V5.714h1.144V12.5H142.811z"/>
		<path fill="#D2D2D2" d="M148.505,12.578c-0.459,0-0.882-0.096-1.268-0.286s-0.717-0.446-0.994-0.767
			c-0.278-0.32-0.492-0.689-0.644-1.105c-0.152-0.416-0.228-0.85-0.228-1.3c0-0.477,0.076-0.93,0.228-1.358
			c0.151-0.43,0.366-0.805,0.644-1.125c0.277-0.32,0.608-0.574,0.994-0.76c0.386-0.187,0.812-0.279,1.281-0.279
			c0.572,0,1.066,0.139,1.482,0.416s0.767,0.628,1.053,1.053V5.714h1.014v6.708c0,0.485-0.091,0.912-0.273,1.281
			c-0.182,0.367-0.429,0.678-0.741,0.929s-0.678,0.442-1.098,0.572c-0.42,0.13-0.869,0.194-1.346,0.194
			c-0.771,0-1.397-0.132-1.878-0.396c-0.481-0.264-0.882-0.63-1.203-1.098l0.663-0.586c0.269,0.399,0.615,0.698,1.04,0.897
			c0.424,0.199,0.884,0.3,1.378,0.3c0.312,0,0.609-0.044,0.891-0.131c0.281-0.086,0.526-0.217,0.734-0.39
			c0.208-0.174,0.375-0.39,0.5-0.649c0.125-0.261,0.188-0.568,0.188-0.924v-1.195c-0.13,0.207-0.284,0.396-0.461,0.564
			c-0.178,0.17-0.371,0.312-0.579,0.43s-0.429,0.205-0.663,0.266C148.986,12.547,148.748,12.578,148.505,12.578z M148.856,11.643
			c0.243,0,0.477-0.044,0.702-0.131c0.225-0.086,0.433-0.201,0.624-0.344c0.19-0.144,0.351-0.307,0.481-0.488
			c0.13-0.182,0.216-0.368,0.26-0.559v-1.95c-0.095-0.233-0.219-0.446-0.371-0.637c-0.151-0.19-0.323-0.358-0.513-0.501
			c-0.191-0.143-0.396-0.254-0.618-0.331c-0.221-0.078-0.444-0.117-0.669-0.117c-0.347,0-0.657,0.073-0.93,0.222
			c-0.273,0.146-0.505,0.342-0.695,0.584c-0.191,0.243-0.338,0.519-0.442,0.826s-0.156,0.617-0.156,0.93
			c0,0.338,0.061,0.658,0.182,0.961c0.121,0.305,0.286,0.568,0.494,0.793c0.208,0.227,0.453,0.406,0.734,0.54
			C148.222,11.575,148.527,11.643,148.856,11.643z"/>
		<path fill="#D2D2D2" d="M159.802,12.5h-1.144V8.704c0-0.702-0.122-1.224-0.364-1.566c-0.243-0.343-0.598-0.514-1.066-0.514
			c-0.225,0-0.451,0.046-0.676,0.137c-0.226,0.091-0.436,0.214-0.63,0.37c-0.195,0.156-0.369,0.343-0.52,0.559
			c-0.152,0.217-0.267,0.455-0.345,0.715V12.5h-1.144V3.01h1.144v4.16c0.269-0.494,0.633-0.879,1.092-1.156
			c0.459-0.277,0.962-0.416,1.508-0.416c0.398,0,0.736,0.073,1.014,0.221c0.277,0.146,0.498,0.346,0.663,0.598
			c0.164,0.252,0.284,0.553,0.357,0.903c0.073,0.351,0.11,0.726,0.11,1.124V12.5z"/>
		<path fill="#D2D2D2" d="M164.872,3.27l3.055,7.762l3.042-7.762h1.235l-3.77,9.23h-1.014l-3.783-9.23H164.872z"/>
		<path fill="#D2D2D2" d="M174.323,12.63c-0.321,0-0.62-0.054-0.897-0.163c-0.277-0.107-0.518-0.257-0.722-0.447
			c-0.204-0.191-0.364-0.414-0.481-0.67c-0.117-0.256-0.175-0.535-0.175-0.838c0-0.312,0.069-0.597,0.208-0.852
			c0.138-0.256,0.335-0.475,0.591-0.657c0.255-0.183,0.559-0.325,0.91-0.429s0.734-0.156,1.15-0.156c0.329,0,0.663,0.03,1.001,0.091
			c0.338,0.062,0.637,0.144,0.897,0.247V8.21c0-0.555-0.156-0.99-0.468-1.307c-0.312-0.315-0.754-0.474-1.326-0.474
			c-0.685,0-1.404,0.264-2.158,0.793l-0.377-0.742c0.875-0.589,1.755-0.883,2.639-0.883c0.893,0,1.588,0.238,2.086,0.715
			s0.748,1.148,0.748,2.015v2.769c0,0.27,0.121,0.408,0.364,0.416V12.5c-0.121,0.018-0.221,0.03-0.299,0.039
			c-0.078,0.008-0.161,0.013-0.247,0.013c-0.225,0-0.405-0.067-0.54-0.201s-0.214-0.297-0.24-0.487l-0.026-0.481
			c-0.304,0.407-0.687,0.718-1.151,0.93C175.348,12.523,174.852,12.63,174.323,12.63z M174.622,11.771
			c0.407,0,0.787-0.075,1.138-0.227c0.351-0.152,0.618-0.354,0.799-0.605c0.165-0.164,0.247-0.333,0.247-0.506V9.432
			c-0.555-0.217-1.131-0.324-1.729-0.324c-0.572,0-1.038,0.121-1.397,0.363c-0.36,0.243-0.54,0.559-0.54,0.949
			c0,0.191,0.037,0.369,0.11,0.533s0.178,0.308,0.312,0.429c0.134,0.122,0.292,0.217,0.475,0.286S174.414,11.771,174.622,11.771z"/>
		<path fill="#D2D2D2" d="M183.371,6.715c-0.572,0.018-1.077,0.165-1.515,0.442c-0.438,0.277-0.748,0.663-0.93,1.157V12.5h-1.144
			V5.714h1.066v1.573c0.234-0.469,0.542-0.848,0.923-1.138s0.789-0.452,1.222-0.487c0.087,0,0.161,0,0.221,0
			s0.113,0.004,0.156,0.013V6.715z"/>
		<path fill="#D2D2D2" d="M184.501,4.439V3.01h1.144v1.43H184.501z M184.501,12.5V5.714h1.144V12.5H184.501z"/>
		<path fill="#D2D2D2" d="M189.234,12.63c-0.321,0-0.62-0.054-0.897-0.163c-0.277-0.107-0.518-0.257-0.722-0.447
			c-0.204-0.191-0.364-0.414-0.481-0.67c-0.117-0.256-0.175-0.535-0.175-0.838c0-0.312,0.069-0.597,0.208-0.852
			c0.138-0.256,0.335-0.475,0.591-0.657c0.255-0.183,0.559-0.325,0.91-0.429s0.734-0.156,1.15-0.156c0.329,0,0.663,0.03,1.001,0.091
			c0.338,0.062,0.637,0.144,0.897,0.247V8.21c0-0.555-0.156-0.99-0.468-1.307c-0.312-0.315-0.754-0.474-1.326-0.474
			c-0.685,0-1.404,0.264-2.158,0.793l-0.377-0.742c0.875-0.589,1.755-0.883,2.639-0.883c0.893,0,1.588,0.238,2.086,0.715
			s0.748,1.148,0.748,2.015v2.769c0,0.27,0.121,0.408,0.364,0.416V12.5c-0.121,0.018-0.221,0.03-0.299,0.039
			c-0.078,0.008-0.161,0.013-0.247,0.013c-0.225,0-0.405-0.067-0.54-0.201s-0.214-0.297-0.24-0.487l-0.026-0.481
			c-0.304,0.407-0.687,0.718-1.151,0.93C190.259,12.523,189.762,12.63,189.234,12.63z M189.533,11.771
			c0.407,0,0.787-0.075,1.138-0.227c0.351-0.152,0.618-0.354,0.799-0.605c0.165-0.164,0.247-0.333,0.247-0.506V9.432
			c-0.555-0.217-1.131-0.324-1.729-0.324c-0.572,0-1.038,0.121-1.397,0.363c-0.36,0.243-0.54,0.559-0.54,0.949
			c0,0.191,0.037,0.369,0.11,0.533s0.178,0.308,0.312,0.429c0.134,0.122,0.292,0.217,0.475,0.286S189.325,11.771,189.533,11.771z"/>
		<path fill="#D2D2D2" d="M200.583,12.5h-1.144V8.704c0-0.728-0.11-1.257-0.332-1.586c-0.221-0.329-0.557-0.494-1.007-0.494
			c-0.234,0-0.468,0.046-0.702,0.137s-0.455,0.214-0.663,0.37s-0.39,0.343-0.546,0.559c-0.156,0.217-0.273,0.455-0.351,0.715V12.5
			h-1.144V5.714h1.04V7.17c0.269-0.477,0.657-0.857,1.164-1.145c0.507-0.285,1.06-0.428,1.658-0.428c0.39,0,0.715,0.07,0.975,0.214
			c0.26,0.144,0.468,0.343,0.624,0.599c0.156,0.255,0.267,0.557,0.332,0.902c0.065,0.348,0.098,0.725,0.098,1.131V12.5z"/>
		<path fill="#D2D2D2" d="M201.908,9.094c0-0.477,0.083-0.928,0.247-1.352c0.165-0.425,0.399-0.795,0.702-1.111
			s0.665-0.568,1.085-0.754c0.42-0.187,0.891-0.279,1.411-0.279c0.676,0,1.259,0.148,1.749,0.447c0.489,0.3,0.86,0.701,1.111,1.203
			L207.095,7.6c-0.173-0.321-0.416-0.57-0.728-0.748c-0.312-0.178-0.659-0.267-1.04-0.267c-0.312,0-0.607,0.063-0.884,0.188
			c-0.277,0.126-0.516,0.301-0.715,0.526c-0.2,0.226-0.357,0.489-0.475,0.793s-0.175,0.638-0.175,1.001
			c0,0.355,0.061,0.689,0.182,1.002c0.122,0.312,0.284,0.582,0.488,0.812c0.204,0.229,0.442,0.408,0.715,0.539
			c0.273,0.13,0.565,0.195,0.877,0.195c0.199,0,0.396-0.029,0.592-0.085c0.195-0.056,0.373-0.132,0.533-0.228
			s0.301-0.206,0.422-0.332c0.122-0.125,0.208-0.262,0.26-0.409l1.118,0.338c-0.104,0.252-0.25,0.481-0.436,0.689
			c-0.187,0.208-0.405,0.386-0.657,0.532c-0.251,0.148-0.531,0.266-0.838,0.352s-0.63,0.13-0.969,0.13
			c-0.511,0-0.979-0.095-1.404-0.286c-0.425-0.19-0.789-0.445-1.092-0.767c-0.304-0.321-0.54-0.696-0.708-1.124
			C201.993,10.023,201.908,9.57,201.908,9.094z"/>
		<path fill="#D2D2D2" d="M212.503,12.63c-0.511,0-0.979-0.093-1.404-0.279c-0.425-0.187-0.789-0.44-1.092-0.761
			c-0.304-0.32-0.54-0.695-0.708-1.125c-0.169-0.428-0.254-0.881-0.254-1.357s0.085-0.928,0.254-1.353s0.407-0.798,0.715-1.118
			s0.674-0.574,1.099-0.76c0.424-0.187,0.893-0.279,1.404-0.279s0.977,0.095,1.397,0.285c0.42,0.191,0.778,0.444,1.073,0.761
			c0.294,0.316,0.522,0.685,0.682,1.104c0.161,0.421,0.241,0.856,0.241,1.307c0,0.096-0.002,0.182-0.006,0.26
			c-0.005,0.078-0.011,0.139-0.02,0.183h-5.629c0.026,0.338,0.104,0.646,0.234,0.923c0.13,0.277,0.299,0.516,0.507,0.715
			s0.444,0.355,0.708,0.469c0.264,0.112,0.544,0.168,0.838,0.168c0.208,0,0.412-0.027,0.611-0.084
			c0.199-0.057,0.385-0.132,0.559-0.228c0.173-0.095,0.327-0.212,0.462-0.351c0.134-0.139,0.236-0.295,0.305-0.469l0.988,0.273
			c-0.113,0.252-0.267,0.48-0.461,0.689c-0.195,0.207-0.421,0.388-0.676,0.539c-0.256,0.152-0.54,0.271-0.852,0.357
			S212.842,12.63,212.503,12.63z M214.831,8.652c-0.026-0.32-0.106-0.617-0.24-0.891c-0.135-0.273-0.304-0.505-0.507-0.695
			c-0.204-0.191-0.44-0.34-0.708-0.449c-0.269-0.107-0.555-0.162-0.858-0.162s-0.589,0.055-0.858,0.162
			c-0.269,0.109-0.505,0.26-0.708,0.455s-0.369,0.428-0.494,0.695c-0.125,0.27-0.202,0.564-0.228,0.885H214.831z"/>
	</g>
	<g>
		<path fill="#D2D2D2" d="M12.93,94.992H3.7v-1.17h8.19v-5.148h1.04V94.992z"/>
		<path fill="#D2D2D2" d="M13.06,84.709c0,0.512-0.095,0.978-0.286,1.398c-0.191,0.42-0.446,0.779-0.767,1.078
			s-0.693,0.531-1.118,0.695c-0.424,0.165-0.871,0.248-1.339,0.248c-0.477,0-0.927-0.086-1.352-0.254
			c-0.425-0.17-0.797-0.403-1.118-0.702c-0.32-0.3-0.576-0.659-0.767-1.079c-0.19-0.42-0.286-0.882-0.286-1.385
			c0-0.502,0.095-0.966,0.286-1.391c0.191-0.425,0.447-0.787,0.767-1.086c0.321-0.299,0.693-0.533,1.118-0.701
			c0.425-0.17,0.875-0.254,1.352-0.254c0.468,0,0.915,0.082,1.339,0.247c0.425,0.165,0.797,0.398,1.118,0.702
			c0.321,0.303,0.576,0.665,0.767,1.085C12.965,83.732,13.06,84.197,13.06,84.709z M9.563,86.958c0.355,0,0.685-0.058,0.988-0.175
			s0.568-0.277,0.793-0.481c0.226-0.204,0.403-0.442,0.533-0.715c0.13-0.273,0.195-0.565,0.195-0.878s-0.065-0.604-0.195-0.877
			c-0.13-0.273-0.31-0.514-0.539-0.722c-0.23-0.208-0.499-0.37-0.806-0.487s-0.639-0.176-0.995-0.176
			c-0.347,0-0.674,0.059-0.981,0.176S7.979,82.902,7.75,83.11c-0.229,0.208-0.409,0.448-0.54,0.722
			c-0.13,0.272-0.195,0.564-0.195,0.877s0.067,0.604,0.202,0.878c0.134,0.272,0.316,0.511,0.546,0.715s0.499,0.364,0.806,0.481
			S9.208,86.958,9.563,86.958z"/>
		<path fill="#D2D2D2" d="M6.144,71.618v-1.104l6.786,2.885v0.949l-3.315,1.365l3.315,1.352v0.949L6.144,80.9v-1.092l5.655-2.341
			l-2.821-1.144l-2.821,1.17v-0.949l2.171-0.832l-2.171-0.832v-0.949l2.821,1.157l2.821-1.144L6.144,71.618z"/>
		<path fill="#D2D2D2" d="M10.551,59.255c0.355,0,0.68,0.071,0.975,0.214c0.294,0.144,0.546,0.338,0.754,0.586
			c0.208,0.246,0.368,0.533,0.481,0.857c0.113,0.325,0.169,0.674,0.169,1.047v4.381H3.7v-4.589c0-0.321,0.069-0.611,0.208-0.871
			c0.139-0.261,0.318-0.481,0.54-0.663c0.221-0.182,0.472-0.322,0.754-0.422s0.565-0.15,0.852-0.15c0.459,0,0.884,0.115,1.274,0.345
			s0.681,0.558,0.871,0.981c0.156-0.528,0.444-0.947,0.864-1.254C9.483,59.408,9.979,59.255,10.551,59.255z M4.714,65.17h3.081
			v-2.938c0-0.209-0.042-0.398-0.124-0.572c-0.083-0.174-0.193-0.323-0.332-0.449c-0.139-0.125-0.301-0.225-0.488-0.299
			c-0.186-0.073-0.383-0.11-0.591-0.11c-0.217,0-0.42,0.034-0.611,0.104c-0.191,0.068-0.355,0.162-0.494,0.279
			s-0.247,0.26-0.325,0.429c-0.078,0.169-0.117,0.349-0.117,0.54V65.17z M10.343,60.438c-0.208,0-0.41,0.037-0.604,0.111
			c-0.195,0.073-0.366,0.173-0.514,0.299c-0.147,0.125-0.264,0.275-0.351,0.448c-0.086,0.173-0.13,0.364-0.13,0.571v3.303h3.172
			v-3.211c0-0.217-0.043-0.416-0.13-0.598c-0.086-0.183-0.202-0.343-0.344-0.481c-0.143-0.139-0.31-0.247-0.5-0.325
			C10.75,60.477,10.551,60.438,10.343,60.438z"/>
		<path fill="#D2D2D2" d="M4.87,57.799H3.44v-1.144h1.43V57.799z M12.93,57.799H6.144v-1.144h6.786V57.799z"/>
		<path fill="#D2D2D2" d="M13.06,53.067c0,0.321-0.054,0.62-0.163,0.897c-0.108,0.277-0.257,0.518-0.448,0.721
			c-0.19,0.204-0.414,0.364-0.669,0.481c-0.256,0.116-0.535,0.175-0.838,0.175c-0.312,0-0.596-0.068-0.852-0.207
			c-0.256-0.139-0.475-0.336-0.657-0.592s-0.325-0.559-0.429-0.91s-0.156-0.734-0.156-1.15c0-0.329,0.03-0.663,0.091-1.001
			C9,51.144,9.082,50.844,9.186,50.584H8.64c-0.555,0-0.99,0.156-1.307,0.469c-0.316,0.312-0.474,0.754-0.474,1.326
			c0,0.684,0.264,1.403,0.793,2.158l-0.741,0.377c-0.589-0.876-0.884-1.756-0.884-2.64c0-0.893,0.238-1.588,0.715-2.087
			c0.477-0.498,1.148-0.747,2.015-0.747h2.769c0.269,0,0.407-0.121,0.416-0.364h0.988c0.017,0.121,0.03,0.221,0.039,0.299
			c0.008,0.078,0.013,0.161,0.013,0.248c0,0.225-0.067,0.404-0.201,0.539s-0.297,0.215-0.488,0.24l-0.481,0.025
			c0.408,0.305,0.717,0.688,0.93,1.151S13.06,52.539,13.06,53.067z M12.202,52.769c0-0.407-0.076-0.786-0.228-1.138
			c-0.151-0.352-0.353-0.617-0.604-0.799c-0.165-0.165-0.333-0.248-0.507-0.248H9.862c-0.217,0.555-0.325,1.131-0.325,1.729
			c0,0.571,0.122,1.038,0.364,1.397s0.559,0.539,0.949,0.539c0.191,0,0.369-0.036,0.533-0.109c0.165-0.074,0.308-0.178,0.429-0.312
			c0.122-0.135,0.217-0.293,0.286-0.475S12.202,52.977,12.202,52.769z"/>
		<path fill="#D2D2D2" d="M13.06,45.229c0,0.546-0.084,1.083-0.253,1.611c-0.169,0.529-0.414,0.984-0.734,1.365l-0.767-0.494
			c0.304-0.398,0.531-0.797,0.683-1.195s0.228-0.819,0.228-1.262c0-0.494-0.098-0.886-0.292-1.176
			c-0.195-0.291-0.47-0.436-0.826-0.436c-0.165,0-0.306,0.039-0.422,0.117c-0.117,0.078-0.219,0.194-0.306,0.351
			c-0.086,0.155-0.165,0.355-0.234,0.599c-0.069,0.242-0.143,0.523-0.221,0.844c-0.104,0.408-0.204,0.759-0.299,1.054
			C9.52,46.9,9.407,47.144,9.277,47.334c-0.13,0.191-0.286,0.33-0.468,0.416c-0.182,0.087-0.407,0.131-0.676,0.131
			c-0.338,0-0.639-0.067-0.904-0.202c-0.264-0.134-0.485-0.318-0.663-0.552c-0.178-0.234-0.312-0.51-0.403-0.826
			c-0.091-0.316-0.136-0.656-0.136-1.021c0-0.511,0.083-0.987,0.247-1.431c0.165-0.441,0.381-0.814,0.65-1.117l0.689,0.52
			c-0.251,0.286-0.44,0.607-0.565,0.963s-0.188,0.719-0.188,1.092c0,0.416,0.089,0.77,0.266,1.059
			c0.178,0.291,0.462,0.436,0.852,0.436c0.156,0,0.286-0.027,0.39-0.084s0.195-0.149,0.273-0.279c0.078-0.131,0.147-0.297,0.208-0.5
			c0.061-0.204,0.126-0.449,0.195-0.735c0.104-0.45,0.21-0.843,0.319-1.177c0.108-0.333,0.236-0.611,0.383-0.832
			c0.147-0.221,0.321-0.385,0.52-0.494c0.2-0.107,0.442-0.162,0.728-0.162c0.633,0,1.135,0.242,1.508,0.729
			C12.874,43.751,13.06,44.404,13.06,45.229z"/>
	</g>
	<g>
		<path fill="#D2D2D2" d="M3.7,202.521h9.23v1.17H8.731v5.084h4.199v1.17H3.7v-1.17h3.991v-5.084H3.7V202.521z"/>
		<path fill="#D2D2D2" d="M4.87,200.494H3.44v-1.145h1.43V200.494z M12.93,200.494H6.144v-1.145h6.786V200.494z"/>
		<path fill="#D2D2D2" d="M13.008,194.8c0,0.46-0.095,0.882-0.286,1.268c-0.19,0.386-0.446,0.718-0.767,0.994
			c-0.32,0.278-0.689,0.492-1.105,0.644c-0.416,0.152-0.849,0.228-1.3,0.228c-0.477,0-0.93-0.075-1.358-0.228
			c-0.429-0.151-0.804-0.365-1.125-0.644c-0.321-0.276-0.574-0.608-0.761-0.994c-0.186-0.386-0.279-0.812-0.279-1.28
			c0-0.572,0.139-1.066,0.416-1.482s0.628-0.768,1.053-1.053H6.144v-1.014h6.708c0.485,0,0.912,0.09,1.281,0.272
			c0.368,0.183,0.678,0.429,0.929,0.741s0.442,0.678,0.572,1.098c0.13,0.421,0.195,0.869,0.195,1.346
			c0,0.771-0.132,1.398-0.396,1.879c-0.265,0.48-0.63,0.882-1.099,1.203l-0.585-0.664c0.399-0.268,0.698-0.615,0.897-1.039
			c0.199-0.425,0.299-0.885,0.299-1.379c0-0.312-0.043-0.608-0.13-0.891c-0.086-0.281-0.216-0.525-0.39-0.734
			c-0.174-0.207-0.39-0.375-0.65-0.5c-0.26-0.125-0.568-0.188-0.923-0.188h-1.196c0.208,0.13,0.396,0.284,0.565,0.462
			s0.312,0.37,0.429,0.578c0.117,0.208,0.206,0.429,0.266,0.663C12.978,194.318,13.008,194.557,13.008,194.8z M12.072,194.449
			c0-0.243-0.043-0.477-0.13-0.703c-0.087-0.225-0.202-0.433-0.345-0.623c-0.143-0.191-0.306-0.352-0.487-0.481
			c-0.182-0.13-0.369-0.216-0.559-0.26h-1.95c-0.234,0.095-0.446,0.219-0.637,0.37c-0.191,0.152-0.358,0.323-0.5,0.514
			c-0.143,0.191-0.254,0.396-0.332,0.617c-0.078,0.222-0.117,0.445-0.117,0.67c0,0.347,0.074,0.656,0.221,0.93
			s0.342,0.505,0.585,0.695c0.243,0.191,0.518,0.338,0.825,0.441c0.308,0.104,0.618,0.156,0.93,0.156
			c0.338,0,0.659-0.061,0.962-0.182c0.304-0.121,0.568-0.286,0.793-0.494c0.226-0.208,0.405-0.453,0.54-0.734
			C12.005,195.084,12.072,194.778,12.072,194.449z"/>
		<path fill="#D2D2D2" d="M12.93,183.503v1.144H9.134c-0.702,0-1.224,0.122-1.566,0.364c-0.342,0.243-0.514,0.599-0.514,1.066
			c0,0.226,0.045,0.45,0.137,0.676c0.091,0.226,0.214,0.436,0.37,0.63c0.156,0.195,0.343,0.369,0.559,0.521
			c0.217,0.151,0.455,0.267,0.715,0.345h4.095v1.145H3.44v-1.145H7.6c-0.494-0.269-0.879-0.633-1.157-1.092
			s-0.416-0.963-0.416-1.508c0-0.398,0.074-0.736,0.221-1.015c0.147-0.277,0.347-0.498,0.598-0.663
			c0.251-0.164,0.552-0.283,0.903-0.357c0.351-0.073,0.726-0.11,1.125-0.11H12.93z"/>
		<path fill="#D2D2D2" d="M10.551,171.166c0.355,0,0.68,0.071,0.975,0.215c0.294,0.143,0.546,0.338,0.754,0.584
			c0.208,0.248,0.368,0.533,0.481,0.858s0.169,0.675,0.169,1.047v4.381H3.7v-4.589c0-0.32,0.069-0.611,0.208-0.871
			s0.318-0.48,0.54-0.663c0.221-0.183,0.472-0.323,0.754-0.423s0.565-0.148,0.852-0.148c0.459,0,0.884,0.114,1.274,0.344
			c0.39,0.23,0.681,0.557,0.871,0.981c0.156-0.528,0.444-0.946,0.864-1.255C9.483,171.32,9.979,171.166,10.551,171.166z
			 M4.714,177.081h3.081v-2.938c0-0.207-0.042-0.398-0.124-0.572c-0.083-0.173-0.193-0.322-0.332-0.447
			c-0.139-0.126-0.301-0.227-0.488-0.3c-0.186-0.073-0.383-0.11-0.591-0.11c-0.217,0-0.42,0.035-0.611,0.104
			c-0.191,0.07-0.355,0.163-0.494,0.28c-0.139,0.116-0.247,0.26-0.325,0.429c-0.078,0.169-0.117,0.35-0.117,0.539V177.081z
			 M10.343,172.35c-0.208,0-0.41,0.036-0.604,0.109c-0.195,0.074-0.366,0.174-0.514,0.299c-0.147,0.127-0.264,0.275-0.351,0.449
			c-0.086,0.174-0.13,0.363-0.13,0.572v3.302h3.172v-3.211c0-0.217-0.043-0.416-0.13-0.599c-0.086-0.182-0.202-0.342-0.344-0.48
			c-0.143-0.139-0.31-0.247-0.5-0.325C10.75,172.389,10.551,172.35,10.343,172.35z"/>
		<path fill="#D2D2D2" d="M4.87,169.711H3.44v-1.145h1.43V169.711z M12.93,169.711H6.144v-1.145h6.786V169.711z"/>
		<path fill="#D2D2D2" d="M13.06,164.979c0,0.32-0.054,0.619-0.163,0.896c-0.108,0.277-0.257,0.519-0.448,0.723
			c-0.19,0.203-0.414,0.363-0.669,0.48s-0.535,0.176-0.838,0.176c-0.312,0-0.596-0.07-0.852-0.209
			c-0.256-0.138-0.475-0.335-0.657-0.591c-0.182-0.255-0.325-0.56-0.429-0.91s-0.156-0.734-0.156-1.15
			c0-0.329,0.03-0.663,0.091-1.001c0.061-0.338,0.143-0.637,0.247-0.896H8.64c-0.555,0-0.99,0.155-1.307,0.467
			c-0.316,0.312-0.474,0.755-0.474,1.326c0,0.686,0.264,1.404,0.793,2.158l-0.741,0.377c-0.589-0.875-0.884-1.755-0.884-2.639
			c0-0.893,0.238-1.588,0.715-2.086c0.477-0.499,1.148-0.748,2.015-0.748h2.769c0.269,0,0.407-0.121,0.416-0.363h0.988
			c0.017,0.121,0.03,0.221,0.039,0.299c0.008,0.078,0.013,0.16,0.013,0.246c0,0.226-0.067,0.406-0.201,0.54s-0.297,0.214-0.488,0.24
			l-0.481,0.026c0.408,0.303,0.717,0.687,0.93,1.15C12.954,163.953,13.06,164.45,13.06,164.979z M12.202,164.68
			c0-0.407-0.076-0.787-0.228-1.138c-0.151-0.351-0.353-0.618-0.604-0.8c-0.165-0.164-0.333-0.246-0.507-0.246H9.862
			c-0.217,0.555-0.325,1.131-0.325,1.729c0,0.572,0.122,1.038,0.364,1.397c0.243,0.36,0.559,0.54,0.949,0.54
			c0.191,0,0.369-0.037,0.533-0.111c0.165-0.073,0.308-0.178,0.429-0.312c0.122-0.134,0.217-0.292,0.286-0.475
			S12.202,164.888,12.202,164.68z"/>
		<path fill="#D2D2D2" d="M13.06,157.14c0,0.546-0.084,1.083-0.253,1.612c-0.169,0.528-0.414,0.983-0.734,1.364l-0.767-0.493
			c0.304-0.399,0.531-0.798,0.683-1.197c0.152-0.398,0.228-0.818,0.228-1.26c0-0.494-0.098-0.887-0.292-1.178
			c-0.195-0.289-0.47-0.436-0.826-0.436c-0.165,0-0.306,0.039-0.422,0.117c-0.117,0.078-0.219,0.195-0.306,0.352
			c-0.086,0.156-0.165,0.355-0.234,0.598c-0.069,0.243-0.143,0.525-0.221,0.846c-0.104,0.407-0.204,0.758-0.299,1.053
			s-0.208,0.537-0.338,0.729c-0.13,0.189-0.286,0.328-0.468,0.416c-0.182,0.086-0.407,0.129-0.676,0.129
			c-0.338,0-0.639-0.066-0.904-0.201c-0.264-0.135-0.485-0.318-0.663-0.553s-0.312-0.509-0.403-0.825
			c-0.091-0.316-0.136-0.657-0.136-1.021c0-0.512,0.083-0.988,0.247-1.43c0.165-0.442,0.381-0.814,0.65-1.118l0.689,0.521
			c-0.251,0.285-0.44,0.605-0.565,0.961s-0.188,0.72-0.188,1.092c0,0.416,0.089,0.77,0.266,1.061
			c0.178,0.29,0.462,0.436,0.852,0.436c0.156,0,0.286-0.028,0.39-0.085c0.104-0.056,0.195-0.149,0.273-0.279
			s0.147-0.297,0.208-0.501c0.061-0.203,0.126-0.448,0.195-0.734c0.104-0.45,0.21-0.843,0.319-1.176
			c0.108-0.334,0.236-0.611,0.383-0.832c0.147-0.222,0.321-0.387,0.52-0.494c0.2-0.109,0.442-0.163,0.728-0.163
			c0.633,0,1.135,0.243,1.508,0.728C12.874,155.662,13.06,156.316,13.06,157.14z"/>
	</g>
</g>
<g id="Layer_3">
	<circle fill="#F0AD4E" stroke="#636C72" stroke-width="0.5" stroke-miterlimit="10" cx="71.067" cy="64.004" r="1.54"/>
	<circle fill="#F0AD4E" stroke="#636C72" stroke-width="0.5" stroke-miterlimit="10" cx="160.469" cy="55.203" r="1.54"/>
	<circle fill="#F0AD4E" stroke="#636C72" stroke-width="0.5" stroke-miterlimit="10" cx="156.612" cy="71.125" r="1.54"/>
	<circle fill="#F0AD4E" stroke="#636C72" stroke-width="0.5" stroke-miterlimit="10" cx="150.283" cy="74.883" r="1.54"/>
	<circle fill="#F0AD4E" stroke="#636C72" stroke-width="0.5" stroke-miterlimit="10" cx="155.524" cy="77.962" r="1.54"/>
	<circle fill="#F0AD4E" stroke="#636C72" stroke-width="0.5" stroke-miterlimit="10" cx="162.644" cy="84.772" r="1.54"/>
	<circle fill="#F0AD4E" stroke="#636C72" stroke-width="0.5" stroke-miterlimit="10" cx="172.633" cy="132.341" r="1.54"/>
	<circle fill="#F0AD4E" stroke="#636C72" stroke-width="0.5" stroke-miterlimit="10" cx="171.093" cy="135.901" r="1.54"/>
	<circle fill="#F0AD4E" stroke="#636C72" stroke-width="0.5" stroke-miterlimit="10" cx="148.347" cy="140.153" r="1.54"/>
	<circle fill="#F0AD4E" stroke="#636C72" stroke-width="0.5" stroke-miterlimit="10" cx="146.807" cy="140.153" r="1.54"/>
	<circle fill="#F0AD4E" stroke="#636C72" stroke-width="0.5" stroke-miterlimit="10" cx="141.467" cy="145" r="1.54"/>
	<circle fill="#F0AD4E" stroke="#636C72" stroke-width="0.5" stroke-miterlimit="10" cx="66.998" cy="158.479" r="1.54"/>
	<circle fill="#F0AD4E" stroke="#636C72" stroke-width="0.5" stroke-miterlimit="10" cx="73.822" cy="162.137" r="1.54"/>
	<circle fill="#F0AD4E" stroke="#636C72" stroke-width="0.5" stroke-miterlimit="10" cx="76.294" cy="160.019" r="1.54"/>
	<circle fill="#F0AD4E" stroke="#636C72" stroke-width="0.5" stroke-miterlimit="10" cx="77.382" cy="158.04" r="1.54"/>
	<circle fill="#F0AD4E" stroke="#636C72" stroke-width="0.5" stroke-miterlimit="10" cx="77.382" cy="156.5" r="1.54"/>
	<circle fill="#F0AD4E" stroke="#636C72" stroke-width="0.5" stroke-miterlimit="10" cx="72.282" cy="159.057" r="1.54"/>
	<circle fill="#F0AD4E" stroke="#636C72" stroke-width="0.5" stroke-miterlimit="10" cx="73.822" cy="158.479" r="1.54"/>
	<circle fill="#F0AD4E" stroke="#636C72" stroke-width="0.5" stroke-miterlimit="10" cx="74.754" cy="156.938" r="1.54"/>
	<circle fill="#F0AD4E" stroke="#636C72" stroke-width="0.5" stroke-miterlimit="10" cx="70.742" cy="157.517" r="1.54"/>
	<circle fill="#F0AD4E" stroke="#636C72" stroke-width="0.5" stroke-miterlimit="10" cx="66.998" cy="155.978" r="1.54"/>
	<circle fill="#F0AD4E" stroke="#636C72" stroke-width="0.5" stroke-miterlimit="10" cx="67.662" cy="152.317" r="1.54"/>
	<circle fill="#F0AD4E" stroke="#636C72" stroke-width="0.5" stroke-miterlimit="10" cx="68.156" cy="153.858" r="1.54"/>
	<circle fill="#F0AD4E" stroke="#636C72" stroke-width="0.5" stroke-miterlimit="10" cx="70.078" cy="155.398" r="1.54"/>
	<circle fill="#F0AD4E" stroke="#636C72" stroke-width="0.5" stroke-miterlimit="10" cx="71.618" cy="153.858" r="1.54"/>
	<circle fill="#F0AD4E" stroke="#636C72" stroke-width="0.5" stroke-miterlimit="10" cx="72.675" cy="152.318" r="1.54"/>
	<circle fill="#F0AD4E" stroke="#636C72" stroke-width="0.5" stroke-miterlimit="10" cx="74.215" cy="153.421" r="1.54"/>
	<circle fill="#F0AD4E" stroke="#636C72" stroke-width="0.5" stroke-miterlimit="10" cx="73.822" cy="155.398" r="1.54"/>
	<circle fill="#F0AD4E" stroke="#636C72" stroke-width="0.5" stroke-miterlimit="10" cx="72.675" cy="155.978" r="1.54"/>
	<circle fill="#F0AD4E" stroke="#636C72" stroke-width="0.5" stroke-miterlimit="10" cx="145.719" cy="144.604" r="1.54"/>
	<circle fill="#F0AD4E" stroke="#636C72" stroke-width="0.5" stroke-miterlimit="10" cx="172.124" cy="143.46" r="1.54"/>
	<circle fill="#F0AD4E" stroke="#636C72" stroke-width="0.5" stroke-miterlimit="10" cx="176.772" cy="148.7" r="1.54"/>
	<circle fill="#F0AD4E" stroke="#636C72" stroke-width="0.5" stroke-miterlimit="10" cx="181.421" cy="150.777" r="1.54"/>
	<circle fill="#F0AD4E" stroke="#636C72" stroke-width="0.5" stroke-miterlimit="10" cx="169.948" cy="156.514" r="1.54"/>
	<circle fill="#F0AD4E" stroke="#636C72" stroke-width="0.5" stroke-miterlimit="10" cx="167.476" cy="165.216" r="1.54"/>
	<circle fill="#F0AD4E" stroke="#636C72" stroke-width="0.5" stroke-miterlimit="10" cx="169.016" cy="150.242" r="1.54"/>
	<circle fill="#F0AD4E" stroke="#636C72" stroke-width="0.5" stroke-miterlimit="10" cx="162.885" cy="149.237" r="1.54"/>
	<circle fill="#F0AD4E" stroke="#636C72" stroke-width="0.5" stroke-miterlimit="10" cx="159.804" cy="147.16" r="1.54"/>
	<circle fill="#F0AD4E" stroke="#636C72" stroke-width="0.5" stroke-miterlimit="10" cx="157.431" cy="148.7" r="1.54"/>
	<circle fill="#F0AD4E" stroke="#636C72" stroke-width="0.5" stroke-miterlimit="10" cx="155.255" cy="146.539" r="1.54"/>
	<circle fill="#F0AD4E" stroke="#636C72" stroke-width="0.5" stroke-miterlimit="10" cx="155.891" cy="152.318" r="1.54"/>
	<circle fill="#F0AD4E" stroke="#636C72" stroke-width="0.5" stroke-miterlimit="10" cx="158.971" cy="152.318" r="1.54"/>
	<circle fill="#F0AD4E" stroke="#636C72" stroke-width="0.5" stroke-miterlimit="10" cx="158.971" cy="154.296" r="1.54"/>
	<circle fill="#F0AD4E" stroke="#636C72" stroke-width="0.5" stroke-miterlimit="10" cx="162.051" cy="153.858" r="1.54"/>
	<circle fill="#F0AD4E" stroke="#636C72" stroke-width="0.5" stroke-miterlimit="10" cx="160.511" cy="156.938" r="1.54"/>
	<circle fill="#F0AD4E" stroke="#636C72" stroke-width="0.5" stroke-miterlimit="10" cx="158.971" cy="161.487" r="1.54"/>
	<circle fill="#F0AD4E" stroke="#636C72" stroke-width="0.5" stroke-miterlimit="10" cx="155.891" cy="159.594" r="1.54"/>
	<circle fill="#F0AD4E" stroke="#636C72" stroke-width="0.5" stroke-miterlimit="10" cx="150.349" cy="163.677" r="1.54"/>
	<circle fill="#F0AD4E" stroke="#636C72" stroke-width="0.5" stroke-miterlimit="10" cx="145.267" cy="162.137" r="1.54"/>
	<circle fill="#F0AD4E" stroke="#636C72" stroke-width="0.5" stroke-miterlimit="10" cx="166.699" cy="81.042" r="1.54"/>
	<circle fill="#F0AD4E" stroke="#636C72" stroke-width="0.5" stroke-miterlimit="10" cx="166.699" cy="75.278" r="1.54"/>
	<circle fill="#F0AD4E" stroke="#636C72" stroke-width="0.5" stroke-miterlimit="10" cx="172.633" cy="79.502" r="1.54"/>
	<circle fill="#F0AD4E" stroke="#636C72" stroke-width="0.5" stroke-miterlimit="10" cx="181.731" cy="79.927" r="1.54"/>
	<circle fill="#F0AD4E" stroke="#636C72" stroke-width="0.5" stroke-miterlimit="10" cx="176.786" cy="73.738" r="1.54"/>
	<circle fill="#F0AD4E" stroke="#636C72" stroke-width="0.5" stroke-miterlimit="10" cx="173.706" cy="71.803" r="1.54"/>
	<circle fill="#F0AD4E" stroke="#636C72" stroke-width="0.5" stroke-miterlimit="10" cx="173.706" cy="76.422" r="1.54"/>
	<circle fill="#F0AD4E" stroke="#636C72" stroke-width="0.5" stroke-miterlimit="10" cx="171.743" cy="75.772" r="1.54"/>
	<circle fill="#F0AD4E" stroke="#636C72" stroke-width="0.5" stroke-miterlimit="10" cx="168.663" cy="68.723" r="1.54"/>
	<circle fill="#F0AD4E" stroke="#636C72" stroke-width="0.5" stroke-miterlimit="10" cx="172.166" cy="64.668" r="1.54"/>
	<circle fill="#F0AD4E" stroke="#636C72" stroke-width="0.5" stroke-miterlimit="10" cx="169.086" cy="62.394" r="1.54"/>
	<circle fill="#F0AD4E" stroke="#636C72" stroke-width="0.5" stroke-miterlimit="10" cx="169.779" cy="56.262" r="1.54"/>
	<circle fill="#F0AD4E" stroke="#636C72" stroke-width="0.5" stroke-miterlimit="10" cx="165.159" cy="63.933" r="1.54"/>
	<circle fill="#F0AD4E" stroke="#636C72" stroke-width="0.5" stroke-miterlimit="10" cx="164.184" cy="68.045" r="1.54"/>
	<circle fill="#F0AD4E" stroke="#636C72" stroke-width="0.5" stroke-miterlimit="10" cx="67.309" cy="64.004" r="1.54"/>
	<circle fill="#F0AD4E" stroke="#636C72" stroke-width="0.5" stroke-miterlimit="10" cx="65.769" cy="65.544" r="1.54"/>
	<circle fill="#F0AD4E" stroke="#636C72" stroke-width="0.5" stroke-miterlimit="10" cx="67.987" cy="66.18" r="1.54"/>
	<circle fill="#F0AD4E" stroke="#636C72" stroke-width="0.5" stroke-miterlimit="10" cx="70.389" cy="67.084" r="1.54"/>
	<circle fill="#F0AD4E" stroke="#636C72" stroke-width="0.5" stroke-miterlimit="10" cx="72.607" cy="68.624" r="1.54"/>
	<circle fill="#F0AD4E" stroke="#636C72" stroke-width="0.5" stroke-miterlimit="10" cx="72.607" cy="71.097" r="1.54"/>
	<circle fill="#F0AD4E" stroke="#636C72" stroke-width="0.5" stroke-miterlimit="10" cx="70.389" cy="71.703" r="1.54"/>
	<circle fill="#F0AD4E" stroke="#636C72" stroke-width="0.5" stroke-miterlimit="10" cx="69.527" cy="74.783" r="1.54"/>
	<circle fill="#F0AD4E" stroke="#636C72" stroke-width="0.5" stroke-miterlimit="10" cx="66.857" cy="73.243" r="1.54"/>
	<circle fill="#F0AD4E" stroke="#636C72" stroke-width="0.5" stroke-miterlimit="10" cx="65.317" cy="71.097" r="1.54"/>
	<circle fill="#F0AD4E" stroke="#636C72" stroke-width="0.5" stroke-miterlimit="10" cx="67.987" cy="71.097" r="1.54"/>
	<circle fill="#F0AD4E" stroke="#636C72" stroke-width="0.5" stroke-miterlimit="10" cx="68.849" cy="68.624" r="1.54"/>
	<circle fill="#F0AD4E" stroke="#636C72" stroke-width="0.5" stroke-miterlimit="10" cx="66.447" cy="68.624" r="1.54"/>
</g>
</svg>
